<?xml version="1.0" standalone="no"?>
<!DOCTYPE svg PUBLIC "-//W3C//DTD SVG 20010904//EN"
 "http://www.w3.org/TR/2001/REC-SVG-20010904/DTD/svg10.dtd">
<svg version="1.0" xmlns="http://www.w3.org/2000/svg"
 width="164.000000pt" height="164.000000pt" viewBox="0 0 164.000000 164.000000"
 preserveAspectRatio="xMidYMid meet">
<metadata>
Created by potrace 1.14, written by Peter Selinger 2001-2017
</metadata>
<g transform="translate(0.000000,164.000000) scale(0.100000,-0.100000)"
fill="#000000" stroke="none">
<path d="M356 1335 c-21 -8 -46 -24 -56 -35 -11 -13 -20 -16 -27 -9 -7 7 -9 2
-7 -18 4 -24 3 -25 -5 -8 -5 11 -10 14 -10 7 -1 -7 -6 -10 -11 -7 -15 9 -40
-14 -33 -31 3 -7 9 -12 13 -9 5 3 11 2 14 -3 2 -4 -4 -9 -15 -9 -10 -1 -19 3
-19 9 0 6 -3 8 -6 5 -4 -4 -1 -14 7 -24 12 -15 12 -16 -6 -10 -19 7 -19 6 -2
-7 24 -19 21 -29 -5 -15 -20 10 -21 10 -12 -2 6 -8 12 -22 13 -31 1 -10 2 -29
3 -43 1 -14 6 -25 10 -25 5 0 8 7 6 16 -2 10 3 18 10 20 7 1 8 0 2 -3 -5 -2
-7 -10 -4 -15 4 -6 -2 -18 -12 -26 -19 -14 -18 -15 1 -8 11 4 22 8 25 9 3 1 6
-2 8 -8 1 -5 -3 -10 -10 -10 -6 0 -12 -7 -13 -16 -2 -12 5 -16 29 -16 17 1 37
-2 44 -7 7 -4 12 -4 12 -1 0 4 13 -3 29 -15 19 -13 32 -17 36 -10 4 6 11 8 16
4 5 -3 6 -10 3 -16 -5 -8 -1 -9 10 -5 11 4 15 3 11 -4 -4 -6 -12 -8 -19 -6 -6
3 -20 -7 -30 -22 l-20 -26 22 19 c12 11 25 16 29 13 3 -4 13 -1 22 6 14 11 14
10 2 -5 -7 -10 -17 -16 -21 -13 -4 3 -11 -2 -14 -11 -9 -24 -7 -29 6 -16 15
15 28 15 28 1 0 -5 -4 -8 -9 -5 -5 3 -12 -1 -15 -10 -3 -8 -11 -12 -17 -8 -8
5 -9 3 -4 -7 5 -7 9 -32 10 -55 0 -30 -3 -40 -12 -37 -10 4 -11 9 -3 18 8 9 7
14 -4 18 -8 3 -13 -1 -12 -11 0 -10 -5 -16 -13 -14 -12 3 -12 0 -2 -12 7 -9
17 -13 22 -10 5 3 8 0 7 -8 -2 -7 4 -12 12 -10 10 3 9 -2 -5 -18 -15 -17 -16
-23 -6 -29 10 -6 9 -10 -4 -14 -9 -4 -13 -3 -10 3 4 6 -1 7 -11 3 -11 -4 -13
-8 -6 -11 7 -2 12 -8 12 -13 0 -6 -6 -7 -12 -3 -10 6 -10 4 0 -7 6 -7 12 -19
12 -26 0 -7 -6 -11 -12 -9 -7 1 -10 1 -5 -1 4 -3 7 -11 7 -19 0 -9 -5 -12 -12
-8 -10 6 -10 4 0 -7 6 -7 12 -28 12 -46 0 -20 -5 -33 -12 -33 -9 0 -9 -3 1 -9
8 -5 12 -18 9 -29 -4 -14 -2 -19 8 -15 7 2 10 11 8 18 -8 21 12 26 27 7 13
-15 12 -16 -4 -3 -16 13 -18 12 -13 -12 2 -15 7 -31 10 -36 4 -5 1 -13 -5 -17
-7 -4 -9 -3 -6 2 3 6 2 16 -3 24 -6 10 -8 3 -6 -22 2 -20 7 -41 11 -47 4 -7 1
-20 -7 -29 -12 -15 -11 -16 5 -3 14 11 17 11 19 0 0 -8 2 -18 3 -24 2 -5 3
-18 4 -29 1 -11 6 -16 15 -13 9 4 17 -1 20 -11 3 -12 4 -11 2 3 -1 11 -7 19
-13 18 -6 -1 -10 9 -10 22 0 14 4 25 10 25 6 0 7 -3 4 -7 -4 -3 0 -17 9 -31 9
-13 14 -32 11 -43 -3 -10 -2 -18 2 -17 3 0 13 0 21 -2 11 -1 9 -4 -5 -10 -18
-8 -18 -9 -2 -9 10 -1 20 6 23 14 4 8 11 15 16 15 6 0 5 -6 -2 -15 -6 -8 -9
-18 -6 -24 3 -5 1 -11 -6 -13 -7 -3 -5 -7 6 -11 10 -4 15 -3 11 3 -4 7 3 9 19
6 17 -3 26 1 29 12 4 15 5 15 6 -1 0 -10 -6 -20 -14 -23 -8 -4 -15 -11 -15
-16 0 -6 6 -5 15 2 12 10 18 10 32 -1 14 -12 16 -12 8 0 -6 11 -3 13 13 9 12
-4 20 -3 17 1 -9 16 36 4 48 -13 13 -17 71 -31 61 -14 -3 5 -11 8 -17 7 -26
-3 -37 2 -37 16 0 8 5 15 11 15 5 0 7 -5 4 -10 -3 -6 1 -10 10 -10 9 0 13 4
10 10 -3 5 0 7 8 4 8 -3 18 0 22 6 5 8 11 8 21 -1 11 -9 14 -9 14 1 0 9 3 10
13 1 8 -6 17 -8 21 -4 4 4 4 1 1 -8 -4 -10 1 -15 14 -15 14 0 17 4 10 12 -7 8
-6 15 2 20 8 4 9 3 5 -4 -8 -13 6 -17 18 -5 10 10 66 13 66 3 0 -5 -9 -7 -20
-5 -11 2 -22 -1 -25 -6 -4 -5 -11 -7 -16 -4 -5 4 -9 1 -9 -4 0 -13 13 -14 24
-3 11 10 30 9 38 -3 5 -6 8 -5 8 3 0 7 4 11 9 7 6 -3 8 7 5 22 -3 19 -2 24 5
14 5 -8 14 -10 21 -6 9 6 11 4 4 -6 -12 -20 -14 -40 -3 -33 5 3 7 10 4 15 -4
5 0 10 7 10 7 1 20 2 28 3 8 1 21 -3 27 -7 8 -6 15 -4 19 7 3 9 10 13 15 10 5
-3 6 2 3 10 -8 21 -13 20 -23 -6 -4 -12 -10 -17 -14 -12 -9 15 7 34 32 39 12
2 20 1 17 -3 -2 -4 3 -14 12 -22 14 -13 15 -12 9 4 -5 14 -3 17 8 12 8 -3 14
-2 14 2 -1 4 -1 14 0 22 1 13 3 13 10 0 6 -8 7 -18 4 -24 -3 -5 -1 -6 5 -2 6
4 8 14 5 24 -3 9 -3 14 2 10 4 -4 14 0 22 10 10 11 12 12 8 2 -4 -10 -2 -9 8
3 8 9 20 17 26 17 7 0 9 5 6 10 -5 9 9 15 18 8 2 -2 26 22 55 52 73 77 132
196 132 263 -1 99 -70 197 -140 197 -22 0 -48 -8 -62 -20 -14 -10 -28 -17 -31
-13 -4 3 -5 -3 -3 -14 4 -16 0 -19 -20 -15 -20 4 -23 1 -18 -14 5 -17 4 -17
-7 1 -8 11 -14 22 -14 25 0 3 -6 14 -12 25 -13 24 -26 94 -27 145 -1 19 -5 38
-10 41 -4 4 -3 10 3 13 6 4 11 2 11 -3 0 -6 8 -11 18 -10 10 0 12 3 5 6 -7 2
-13 12 -13 21 0 10 3 13 8 7 4 -5 16 -17 27 -25 19 -14 19 -14 6 3 -16 20 -16
19 26 36 75 30 112 140 75 225 -22 48 -61 75 -125 83 -29 4 -119 -25 -113 -36
1 -3 -5 -14 -15 -23 -16 -15 -18 -15 -23 -1 -4 9 -9 13 -12 10 -3 -3 0 -15 6
-27 7 -12 8 -20 2 -16 -5 3 -13 -1 -16 -10 -3 -8 -10 -13 -15 -10 -5 4 -12 0
-14 -6 -4 -9 -6 -8 -6 2 -1 13 -15 16 -75 14 -60 -1 -87 -7 -140 -32 -61 -29
-66 -30 -66 -11 0 34 0 34 -71 111 -41 46 -50 51 -95 54 -28 2 -66 -3 -88 -11z
m-107 -96 c3 -11 1 -12 -11 -2 -8 7 -19 9 -23 5 -5 -4 -5 -1 -1 6 9 16 28 11
35 -9z m-30 -110 c-15 -9 -32 -2 -24 11 3 5 13 6 21 3 12 -4 13 -8 3 -14z m31
-103 c-7 -7 -13 -7 -20 0 -6 6 -3 10 10 10 13 0 16 -4 10 -10z m120 -360 c0
-2 -7 -7 -16 -10 -8 -3 -12 -2 -9 4 6 10 25 14 25 6z m-4 -68 c4 -7 4 -10 -1
-6 -4 4 -14 3 -22 -4 -11 -8 -12 -7 -7 6 7 19 20 21 30 4z m-6 -32 c0 -3 -4
-8 -10 -11 -5 -3 -10 -1 -10 4 0 6 5 11 10 11 6 0 10 -2 10 -4z m2 -33 c-6 -2
-10 -8 -7 -13 3 -4 -2 -11 -10 -14 -13 -4 -14 -2 -5 14 6 11 16 20 23 19 9 0
9 -2 -1 -6z m838 -13 c0 -5 -2 -10 -4 -10 -3 0 -8 5 -11 10 -3 6 -1 10 4 10 6
0 11 -4 11 -10z m-816 -118 c2 -4 -5 -9 -17 -9 -17 -2 -19 0 -7 7 18 12 18 12
24 2z m6 -50 c0 -8 -1 -13 -3 -11 -1 2 -9 12 -16 22 -12 15 -12 17 3 11 9 -3
16 -13 16 -22z m124 -154 c-3 -4 -11 -5 -19 -1 -21 7 -19 12 4 10 11 0 18 -5
15 -9z m471 2 c3 -5 2 -10 -4 -10 -5 0 -13 5 -16 10 -3 6 -2 10 4 10 5 0 13
-4 16 -10z"/>
<path d="M905 1249 c-4 -6 -3 -15 3 -21 6 -6 11 -4 15 6 7 18 -9 31 -18 15z"/>
<path d="M270 1006 c0 -4 6 -14 14 -22 11 -11 16 -11 19 -1 3 7 6 4 6 -6 1
-10 6 -15 11 -12 6 3 10 2 10 -4 0 -13 28 -8 43 9 10 12 9 12 -4 2 -13 -10
-21 -8 -43 9 -14 11 -26 17 -26 14 0 -4 -7 -2 -15 5 -8 7 -15 9 -15 6z"/>
<path d="M250 980 c0 -5 5 -10 11 -10 5 0 7 5 4 10 -3 6 -8 10 -11 10 -2 0 -4
-4 -4 -10z"/>
<path d="M347 859 c7 -9 10 -19 6 -22 -3 -4 -1 -7 5 -7 17 0 15 16 -5 31 -16
12 -17 12 -6 -2z"/>
<path d="M315 821 c-3 -5 -2 -12 3 -15 5 -3 9 1 9 9 0 17 -3 19 -12 6z"/>
<path d="M339 745 c-1 -3 -2 -8 -3 -12 -1 -5 -5 -15 -10 -23 -6 -9 -1 -8 12 4
12 10 19 23 16 27 -6 10 -13 12 -15 4z"/>
<path d="M715 170 c-4 -6 -2 -17 5 -23 10 -9 11 -9 5 1 -8 16 26 13 37 -3 4
-6 8 -2 8 9 0 11 -5 16 -14 13 -7 -3 -18 -1 -24 5 -6 6 -12 6 -17 -2z"/>
<path d="M621 154 c0 -11 3 -14 6 -6 3 7 2 16 -1 19 -3 4 -6 -2 -5 -13z"/>
<path d="M580 146 c0 -2 7 -6 15 -10 8 -3 15 -1 15 4 0 6 -7 10 -15 10 -8 0
-15 -2 -15 -4z"/>
</g>
</svg>
